<svg width="133" height="26" viewBox="0 0 133 26" fill="none" xmlns="http://www.w3.org/2000/svg">
<path d="M0.0227273 25V1.72727H15.4318V5.78409H4.94318V11.3295H14.4091V15.3864H4.94318V25H0.0227273ZM28.75 17.5682V7.54545H33.5909V25H28.9432V21.8295H28.7614C28.3674 22.8523 27.7121 23.6742 26.7955 24.2955C25.8864 24.9167 24.7765 25.2273 23.4659 25.2273C22.2992 25.2273 21.2727 24.9621 20.3864 24.4318C19.5 23.9015 18.8068 23.1477 18.3068 22.1705C17.8144 21.1932 17.5644 20.0227 17.5568 18.6591V7.54545H22.3977V17.7955C22.4053 18.8258 22.6818 19.6402 23.2273 20.2386C23.7727 20.8371 24.5038 21.1364 25.4205 21.1364C26.0038 21.1364 26.5492 21.0038 27.0568 20.7386C27.5644 20.4659 27.9735 20.0644 28.2841 19.5341C28.6023 19.0038 28.7576 18.3485 28.75 17.5682ZM37.4631 25V7.54545H42.1562V10.5909H42.3381C42.6563 9.50758 43.1903 8.68939 43.9403 8.13636C44.6903 7.57576 45.554 7.29545 46.5312 7.29545C46.7737 7.29545 47.035 7.31061 47.3153 7.34091C47.5956 7.37121 47.8419 7.41288 48.054 7.46591V11.7614C47.8267 11.6932 47.5123 11.6326 47.1108 11.5795C46.7093 11.5265 46.3419 11.5 46.0085 11.5C45.2964 11.5 44.66 11.6553 44.0994 11.9659C43.5464 12.2689 43.107 12.6932 42.7812 13.2386C42.4631 13.7841 42.304 14.4129 42.304 15.125V25H37.4631ZM55.3977 14.9091V25H50.5568V7.54545H55.1705V10.625H55.375C55.7614 9.60985 56.4091 8.80682 57.3182 8.21591C58.2273 7.61742 59.3295 7.31818 60.625 7.31818C61.8371 7.31818 62.8939 7.58333 63.7955 8.11364C64.697 8.64394 65.3977 9.40151 65.8977 10.3864C66.3977 11.3636 66.6477 12.5303 66.6477 13.8864V25H61.8068V14.75C61.8144 13.6818 61.5417 12.8485 60.9886 12.25C60.4356 11.6439 59.6742 11.3409 58.7045 11.3409C58.053 11.3409 57.4773 11.4811 56.9773 11.7614C56.4848 12.0417 56.0985 12.4508 55.8182 12.9886C55.5455 13.5189 55.4053 14.1591 55.3977 14.9091ZM70.4631 25V7.54545H75.304V25H70.4631ZM72.8949 5.29545C72.1752 5.29545 71.5578 5.05682 71.0426 4.57954C70.535 4.0947 70.2812 3.51515 70.2812 2.84091C70.2812 2.17424 70.535 1.60227 71.0426 1.125C71.5578 0.640151 72.1752 0.397726 72.8949 0.397726C73.6146 0.397726 74.2282 0.640151 74.7358 1.125C75.2509 1.60227 75.5085 2.17424 75.5085 2.84091C75.5085 3.51515 75.2509 4.0947 74.7358 4.57954C74.2282 5.05682 73.6146 5.29545 72.8949 5.29545ZM79.2727 25V1.72727H84.1932V20.9432H94.1705V25H79.2727ZM108.531 17.5682V7.54545H113.372V25H108.724V21.8295H108.543C108.149 22.8523 107.493 23.6742 106.577 24.2955C105.668 24.9167 104.558 25.2273 103.247 25.2273C102.08 25.2273 101.054 24.9621 100.168 24.4318C99.2813 23.9015 98.5881 23.1477 98.0881 22.1705C97.5956 21.1932 97.3456 20.0227 97.3381 18.6591V7.54545H102.179V17.7955C102.187 18.8258 102.463 19.6402 103.009 20.2386C103.554 20.8371 104.285 21.1364 105.202 21.1364C105.785 21.1364 106.33 21.0038 106.838 20.7386C107.346 20.4659 107.755 20.0644 108.065 19.5341C108.384 19.0038 108.539 18.3485 108.531 17.5682ZM121.29 7.54545L124.494 13.6477L127.778 7.54545H132.744L127.688 16.2727L132.881 25H127.938L124.494 18.9659L121.108 25H116.108L121.29 16.2727L116.29 7.54545H121.29Z" fill="black"/>
</svg>